<svg width="24" height="24" viewBox="0 0 24 24" fill="none" xmlns="http://www.w3.org/2000/svg">
<path fill-rule="evenodd" clip-rule="evenodd" d="M8.781 6.96901C8.71133 6.89917 8.62857 6.84375 8.53745 6.80594C8.44633 6.76813 8.34865 6.74867 8.25 6.74867C8.15135 6.74867 8.05367 6.76813 7.96255 6.80594C7.87143 6.84375 7.78867 6.89917 7.719 6.96901L3.219 11.469C3.14915 11.5387 3.09374 11.6214 3.05593 11.7126C3.01812 11.8037 2.99866 11.9014 2.99866 12C2.99866 12.0987 3.01812 12.1963 3.05593 12.2875C3.09374 12.3786 3.14915 12.4613 3.219 12.531L7.719 17.031C7.85983 17.1718 8.05083 17.251 8.25 17.251C8.44916 17.251 8.64017 17.1718 8.781 17.031C8.92183 16.8902 9.00095 16.6992 9.00095 16.5C9.00095 16.3008 8.92183 16.1098 8.781 15.969L4.8105 12L8.781 8.03101C8.85084 7.96134 8.90626 7.87858 8.94407 7.78746C8.98188 7.69635 9.00134 7.59866 9.00134 7.50001C9.00134 7.40136 8.98188 7.30368 8.94407 7.21256C8.90626 7.12144 8.85084 7.03868 8.781 6.96901Z" fill="black"/>
<path fill-rule="evenodd" clip-rule="evenodd" d="M15 12C15 11.8011 14.921 11.6103 14.7803 11.4697C14.6397 11.329 14.4489 11.25 14.25 11.25H4.5C4.30109 11.25 4.11032 11.329 3.96967 11.4697C3.82902 11.6103 3.75 11.8011 3.75 12C3.75 12.1989 3.82902 12.3897 3.96967 12.5303C4.11032 12.671 4.30109 12.75 4.5 12.75H14.25C14.4489 12.75 14.6397 12.671 14.7803 12.5303C14.921 12.3897 15 12.1989 15 12ZM18.75 21C18.5511 21 18.3603 20.921 18.2197 20.7803C18.079 20.6397 18 20.4489 18 20.25V3.75C18 3.55109 18.079 3.36032 18.2197 3.21967C18.3603 3.07902 18.5511 3 18.75 3C18.9489 3 19.1397 3.07902 19.2803 3.21967C19.421 3.36032 19.5 3.55109 19.5 3.75V20.25C19.5 20.4489 19.421 20.6397 19.2803 20.7803C19.1397 20.921 18.9489 21 18.75 21Z" fill="black"/>
</svg>
