<svg width="24" height="24" viewBox="0 0 24 24" fill="none" xmlns="http://www.w3.org/2000/svg">
<path fill-rule="evenodd" clip-rule="evenodd" d="M5.469 22.2811C5.53867 22.3509 5.62143 22.4063 5.71255 22.4441C5.80367 22.4819 5.90135 22.5014 6 22.5014C6.09865 22.5014 6.19633 22.4819 6.28745 22.4441C6.37857 22.4063 6.46133 22.3509 6.531 22.2811L12 16.8106L17.469 22.2811C17.6098 22.4219 17.8008 22.501 18 22.501C18.1992 22.501 18.3902 22.4219 18.531 22.2811C18.6718 22.1402 18.7509 21.9492 18.7509 21.7501C18.7509 21.5509 18.6718 21.3599 18.531 21.2191L12.531 15.2191C12.4613 15.1492 12.3786 15.0938 12.2874 15.056C12.1963 15.0182 12.0987 14.9987 12 14.9987C11.9013 14.9987 11.8037 15.0182 11.7125 15.056C11.6214 15.0938 11.5387 15.1492 11.469 15.2191L5.469 21.2191C5.39915 21.2887 5.34374 21.3715 5.30593 21.4626C5.26812 21.5537 5.24866 21.6514 5.24866 21.7501C5.24866 21.8487 5.26812 21.9464 5.30593 22.0375C5.34374 22.1286 5.39915 22.2114 5.469 22.2811ZM5.469 1.71906C5.53867 1.64921 5.62143 1.5938 5.71255 1.55599C5.80367 1.51818 5.90135 1.49872 6 1.49872C6.09865 1.49872 6.19633 1.51818 6.28745 1.55599C6.37857 1.5938 6.46133 1.64921 6.531 1.71906L12 7.18956L17.469 1.71906C17.6098 1.57823 17.8008 1.49911 18 1.49911C18.1992 1.49911 18.3902 1.57823 18.531 1.71906C18.6718 1.85989 18.7509 2.0509 18.7509 2.25006C18.7509 2.44922 18.6718 2.64023 18.531 2.78106L12.531 8.78106C12.4613 8.8509 12.3786 8.90632 12.2874 8.94413C12.1963 8.98194 12.0987 9.0014 12 9.0014C11.9013 9.0014 11.8037 8.98194 11.7125 8.94413C11.6214 8.90632 11.5387 8.8509 11.469 8.78106L5.469 2.78106C5.39915 2.71139 5.34374 2.62863 5.30593 2.53751C5.26812 2.44639 5.24866 2.34871 5.24866 2.25006C5.24866 2.15141 5.26812 2.05373 5.30593 1.96261C5.34374 1.87149 5.39915 1.78873 5.469 1.71906ZM1.5 12.0001C1.5 11.8011 1.57902 11.6104 1.71967 11.4697C1.86032 11.3291 2.05109 11.2501 2.25 11.2501H21.75C21.9489 11.2501 22.1397 11.3291 22.2803 11.4697C22.421 11.6104 22.5 11.8011 22.5 12.0001C22.5 12.199 22.421 12.3897 22.2803 12.5304C22.1397 12.671 21.9489 12.7501 21.75 12.7501H2.25C2.05109 12.7501 1.86032 12.671 1.71967 12.5304C1.57902 12.3897 1.5 12.199 1.5 12.0001Z" fill="black"/>
</svg>
