<svg width="30" height="30" viewBox="0 0 30 30" fill="none" xmlns="http://www.w3.org/2000/svg">
<path fill-rule="evenodd" clip-rule="evenodd" d="M21.3421 1.34209C21.744 0.940367 22.2889 0.714691 22.8571 0.714691C23.4253 0.714691 23.9703 0.940367 24.3721 1.34209L28.6578 5.62781C29.0596 6.02965 29.2852 6.5746 29.2852 7.1428C29.2852 7.71101 29.0596 8.25596 28.6578 8.6578L9.37214 27.9435C9.13754 28.1788 8.85143 28.3564 8.53642 28.4621L2.10785 30.6049C1.73017 30.7314 1.32471 30.7501 0.936994 30.6589C0.549276 30.5677 0.194643 30.3703 -0.0871047 30.0888C-0.368852 29.8073 -0.566562 29.4528 -0.658043 29.0651C-0.749525 28.6775 -0.731158 28.272 -0.605003 27.8942L1.53785 21.4657C1.64328 21.1499 1.82083 20.863 2.05643 20.6278L21.3421 1.34209V1.34209ZM22.8571 2.85709L27.1428 7.1428L7.85714 26.4285L1.42857 28.5714L3.57142 22.1428L22.8571 2.85709Z" fill="black"/>
<path fill-rule="evenodd" clip-rule="evenodd" d="M23.17 12.1872L17.8128 6.83001L19.33 5.31287L24.6871 10.67L23.1721 12.1872H23.17ZM3.57141 20V21.0714C3.57141 21.3556 3.68429 21.6281 3.88523 21.8291C4.08616 22.03 4.35868 22.1429 4.64284 22.1429H5.71427V23.2143C5.71427 23.4985 5.82715 23.771 6.02808 23.9719C6.22901 24.1728 6.50154 24.2857 6.7857 24.2857H7.85713V25.3572C7.85713 25.6413 7.97001 25.9138 8.17094 26.1148C8.37187 26.3157 8.64439 26.4286 8.92855 26.4286H9.99998V23.2143C9.99998 22.9301 9.8871 22.6576 9.68617 22.4567C9.48524 22.2557 9.21271 22.1429 8.92855 22.1429H7.85713V21.0714C7.85713 20.7873 7.74424 20.5148 7.54331 20.3138C7.34238 20.1129 7.06986 20 6.7857 20H3.57141Z" fill="black"/>
</svg>
